<svg width="14" height="14" viewBox="0 0 14 14" fill="none" xmlns="http://www.w3.org/2000/svg">
<path fill-rule="evenodd" clip-rule="evenodd" d="M6.64189 0.706221C6.85254 0.542384 7.14751 0.542384 7.35815 0.706221L12.6082 4.78955C12.7502 4.90007 12.8334 5.07 12.8334 5.25001V11.6667C12.8334 12.1308 12.649 12.5759 12.3208 12.9041C11.9926 13.2323 11.5475 13.4167 11.0834 13.4167H2.91669C2.45256 13.4167 2.00744 13.2323 1.67925 12.9041C1.35106 12.5759 1.16669 12.1308 1.16669 11.6667V5.25001C1.16669 5.07 1.2498 4.90007 1.39189 4.78955L6.64189 0.706221ZM2.33335 5.53531V11.6667C2.33335 11.8214 2.39481 11.9698 2.50421 12.0792C2.6136 12.1886 2.76198 12.25 2.91669 12.25H11.0834C11.2381 12.25 11.3864 12.1886 11.4958 12.0792C11.6052 11.9698 11.6667 11.8214 11.6667 11.6667V5.53531L7.00002 1.90568L2.33335 5.53531Z" fill="white"/>
<path fill-rule="evenodd" clip-rule="evenodd" d="M4.66669 7.00001C4.66669 6.67784 4.92785 6.41668 5.25002 6.41668H8.75002C9.07219 6.41668 9.33335 6.67784 9.33335 7.00001V12.8333C9.33335 13.1555 9.07219 13.4167 8.75002 13.4167C8.42785 13.4167 8.16669 13.1555 8.16669 12.8333V7.58334H5.83335V12.8333C5.83335 13.1555 5.57219 13.4167 5.25002 13.4167C4.92785 13.4167 4.66669 13.1555 4.66669 12.8333V7.00001Z" fill="white"/>
</svg>
